<?xml version="1.0" encoding="utf-8" ?>
<svg xmlns="http://www.w3.org/2000/svg" xmlns:xlink="http://www.w3.org/1999/xlink" width="1181" height="1181">
	<defs>
		<linearGradient id="gradient_0" gradientUnits="userSpaceOnUse" x1="11.435249" y1="-11.00837" x2="1168.988" y2="1191.4318">
			<stop offset="0" stop-color="#7E27A1"/>
			<stop offset="1" stop-color="#0D4DB0"/>
		</linearGradient>
	</defs>
	<path fill="url(#gradient_0)" d="M0 0L1181 0L1181 1181L0 1181L0 0ZM690.321 157.028C670.813 149.957 650.65 143.897 630.126 140.629C576.663 132.115 519.941 142.239 471.122 165.059Q467.918 166.554 464.752 168.127Q461.585 169.7 458.459 171.35Q455.332 173.001 452.247 174.728Q449.162 176.455 446.12 178.257Q443.078 180.059 440.082 181.936Q437.085 183.813 434.136 185.762Q431.187 187.712 428.286 189.734Q425.386 191.755 422.536 193.848Q419.686 195.94 416.888 198.102Q414.091 200.264 411.347 202.494Q408.604 204.724 405.916 207.021Q403.228 209.318 400.597 211.68Q397.967 214.043 395.395 216.469Q392.824 218.895 390.312 221.384Q387.801 223.873 385.352 226.423Q382.903 228.973 380.517 231.582Q378.132 234.192 375.811 236.859Q373.49 239.526 371.236 242.25Q368.981 244.973 366.794 247.751Q364.607 250.53 362.49 253.361Q360.372 256.192 358.324 259.074Q356.277 261.957 354.301 264.888Q352.325 267.82 350.422 270.8Q348.519 273.78 346.689 276.805Q344.86 279.831 343.105 282.9Q341.351 285.97 339.673 289.082Q337.994 292.193 336.393 295.346Q334.792 298.498 333.269 301.688Q331.745 304.879 330.301 308.106Q328.857 311.333 327.492 314.595Q326.128 317.857 324.844 321.151Q323.56 324.445 322.358 327.77C290.139 416.763 304.998 489.193 344.334 572.757C349.461 583.647 355.457 598.098 362.305 607.743C396.43 666.676 440.693 722.403 461.125 788.133C466.882 806.654 463.448 835.282 485.347 843.962C486.041 848.824 486.836 854.184 484.546 858.765C481.076 860.148 478.588 861.674 477.065 865.232C475.694 868.435 475.041 872.086 476.543 875.383C477.204 876.832 478.69 878.813 480.195 879.33C482.647 880.883 485.183 882.306 485.919 885.324C486.515 887.772 485.658 890.7 485.173 893.125C481.854 894.017 479.542 895.023 477.723 898.085C476.129 900.765 475.843 904.141 476.674 907.118C477.467 909.956 479.56 912.884 482.26 914.189C483.549 914.811 485.083 914.979 486.487 915.14C486.796 919.255 486.747 923.158 486.274 927.264C482.022 928.828 479.125 930.506 477.115 934.755C475.799 937.537 475.442 940.788 476.55 943.698C477.477 946.131 479.473 948.347 481.917 949.315C483.117 949.79 484.413 950.065 485.675 950.313C487.002 952.897 488.121 955.43 487.043 958.342C486.489 959.838 485.531 961.149 484.484 962.331C481.039 964.979 477.484 967.676 476.706 972.259C476.237 975.028 477.202 977.662 478.841 979.868C479.987 981.411 481.289 982.741 482.729 984.006C496.13 998.332 497.24 1016.95 521.002 1017.89C523.482 1017.99 525.974 1017.97 528.456 1017.96L521.417 1018.32C529.395 1024.83 535.082 1031.49 539.506 1040.83C541.142 1044.28 542.508 1047.99 544.38 1051.32C553.05 1066.69 586.365 1064.44 601.571 1063.87C608.768 1063.6 616.04 1063.48 623.218 1062.91C629.943 1050.28 637.42 1038.09 644.853 1025.86C655.018 1046.05 667.688 1064.92 687.974 1076.07C704.171 1084.98 722.67 1087.36 740.471 1082.15C760.089 1076.4 770.955 1064.35 780.492 1046.93C802.092 1044.72 810.534 1039.41 824.421 1022.82C830.807 1020.78 835.387 1019.53 839.853 1014.18C835.49 1008.32 827.951 1005.5 824.238 999.596C817.514 988.904 836.873 987.076 837.596 979.492C838.294 972.18 827.735 972.828 824.255 968.516C815.835 958.082 837.853 951.633 837.963 943.256C838.018 939.068 827.567 936.093 824.84 932.968C823.503 931.436 822.879 929.768 823.139 927.73C823.987 921.095 830.59 918.505 835.098 914.68C836.593 913.412 837.883 911.943 837.952 909.89C838.108 905.267 828.021 901.833 825.057 898.755C824.91 898.603 824.768 898.446 824.623 898.292C823.577 894.348 823.607 891.177 824.036 887.173C830.833 883.99 836.363 881.338 839.34 873.986C835.761 869.708 832.841 867.842 827.779 865.72Q829.986 855.905 832.855 846.263Q835.723 836.621 839.239 827.195Q842.756 817.77 846.904 808.605Q851.052 799.44 855.813 790.578C880.803 743.9 916.011 703.733 943.916 658.898Q949.431 650.21 954.405 641.202Q959.38 632.194 963.796 622.899Q968.213 613.604 972.054 604.058Q975.895 594.511 979.147 584.748C1006.01 504.244 1001.85 416.827 963.761 340.674C922.786 258.759 848.717 199.118 762.471 170.429C748.031 165.625 702.914 150.738 690.321 157.028Z"/>
	<path fill="#CA95CB" d="M362.305 607.743C355.457 598.098 349.461 583.647 344.334 572.757C304.998 489.193 290.139 416.763 322.358 327.77Q323.56 324.445 324.844 321.151Q326.128 317.857 327.492 314.595Q328.857 311.333 330.301 308.106Q331.745 304.879 333.269 301.688Q334.792 298.498 336.393 295.346Q337.994 292.193 339.673 289.082Q341.351 285.97 343.105 282.9Q344.86 279.831 346.689 276.805Q348.519 273.78 350.422 270.8Q352.325 267.82 354.301 264.888Q356.277 261.957 358.324 259.074Q360.372 256.192 362.49 253.361Q364.607 250.53 366.794 247.751Q368.981 244.973 371.235 242.25Q373.49 239.526 375.811 236.859Q378.131 234.192 380.517 231.582Q382.903 228.973 385.352 226.423Q387.801 223.873 390.312 221.384Q392.823 218.895 395.395 216.469Q397.967 214.043 400.597 211.68Q403.228 209.318 405.916 207.021Q408.603 204.724 411.347 202.494Q414.091 200.264 416.888 198.102Q419.686 195.94 422.536 193.848Q425.386 191.755 428.286 189.734Q431.187 187.712 434.136 185.762Q437.085 183.813 440.082 181.936Q443.078 180.059 446.12 178.257Q449.162 176.455 452.247 174.728Q455.332 173.001 458.459 171.35Q461.585 169.7 464.752 168.127Q467.918 166.554 471.122 165.059C519.941 142.239 576.663 132.115 630.126 140.629C650.65 143.897 670.813 149.957 690.321 157.028C709.065 166.183 727.147 175.781 744.426 187.539C798.336 224.222 836.221 276.772 857.41 338.221C882.668 411.467 872.175 491.799 838.549 560.584Q826.153 585.341 811.873 609.062C807.481 606.589 740.344 607.946 730.349 607.946C723.996 607.946 715.477 608.972 709.407 607.433L716.089 607.356L783.098 607.438C782.838 594.196 782.139 580.959 782.005 567.716Q781.768 519.069 782.475 470.428C782.602 447.371 784.794 423.52 782.385 400.584C781.428 391.477 778.802 383.405 771.266 377.551C763.88 371.814 754.398 369.651 745.192 370.751C731.894 372.34 724.229 380.236 716.29 390.257C714.557 380.159 715.472 369.176 715.526 358.956L715.867 307.448C715.972 296.746 716.801 285.2 713.854 274.808C712.016 268.325 708.314 263.115 704.412 257.715C701.858 246.995 693.279 240.867 684.365 235.438C643.929 210.808 592.17 208.607 547.129 219.759Q544.493 220.41 541.874 221.127Q539.255 221.844 536.655 222.626Q534.055 223.407 531.475 224.253Q528.895 225.099 526.336 226.009Q523.778 226.919 521.243 227.892Q518.708 228.865 516.198 229.901Q513.688 230.937 511.205 232.035Q508.722 233.133 506.266 234.292Q503.811 235.451 501.385 236.671Q498.959 237.891 496.565 239.171Q494.17 240.45 491.808 241.789Q489.446 243.128 487.117 244.525Q484.789 245.922 482.497 247.377Q480.204 248.832 477.948 250.343Q475.692 251.854 473.474 253.421Q471.257 254.987 469.079 256.609Q466.901 258.23 464.764 259.905Q462.626 261.58 460.532 263.307Q458.437 265.035 456.386 266.814Q454.334 268.593 452.328 270.422Q450.322 272.252 448.361 274.131Q446.401 276.009 444.488 277.936Q442.575 279.863 440.711 281.837Q438.846 283.811 437.031 285.83Q435.216 287.85 433.452 289.914Q431.688 291.978 429.975 294.085Q428.263 296.192 426.604 298.342Q424.944 300.491 423.339 302.68Q421.733 304.87 420.182 307.099Q418.632 309.328 417.137 311.595Q415.642 313.861 414.204 316.165Q412.766 318.468 411.386 320.806Q409.507 323.951 407.737 327.159Q405.967 330.367 404.308 333.633Q402.649 336.9 401.103 340.222Q399.557 343.543 398.126 346.916Q396.694 350.288 395.38 353.708Q394.065 357.127 392.868 360.59Q391.67 364.052 390.593 367.554Q389.515 371.056 388.558 374.592Q387.601 378.129 386.765 381.696Q385.93 385.263 385.217 388.857Q384.505 392.45 383.916 396.066Q383.327 399.682 382.862 403.317Q382.397 406.951 382.057 410.599Q381.717 414.246 381.502 417.904Q381.287 421.561 381.197 425.224Q381.108 428.886 381.144 432.55C381.568 454.173 385.657 476.742 390.867 497.663C392.405 503.835 394.03 512.365 397.717 517.563C390.005 520.26 383.988 523.668 380.339 531.4C372.319 548.394 376.609 587.644 376.665 606.763C371.864 606.681 367.006 606.608 362.305 607.743ZM653.668 170.287C649.544 173.04 644.444 176.472 643.281 181.634C642.838 183.602 643.214 185.164 643.854 187.031C655.438 196.994 672.829 201.581 686.429 208.396C699.99 215.191 712.41 224.959 727.129 229.16C730.672 227.74 734.31 226.304 736.024 222.598C737.65 219.084 737.317 214.587 735.788 211.107C728.697 194.971 693.824 181.789 677.444 175.884C669.513 173.024 662.093 170.878 653.668 170.287ZM753.929 232.92C750.31 235.083 746.489 237.126 745.451 241.57C744.293 246.531 747.982 251.836 750.637 255.783C755.844 263.522 782.895 301.035 790.741 302.552C792.39 302.871 794.104 302.829 795.775 302.784C799.022 300.737 803.358 298.254 804.297 294.238C806.157 286.288 798.704 275.261 794.462 269.013C787.068 258.123 771.488 236.062 758.307 233.507Q756.135 233.09 753.929 232.92Z"/>
	<path fill="#0A3B8B" d="M690.321 157.028C702.914 150.738 748.031 165.625 762.471 170.429C848.717 199.118 922.786 258.759 963.761 340.674C1001.85 416.827 1006.01 504.244 979.147 584.748Q975.895 594.511 972.054 604.058Q968.213 613.604 963.796 622.899Q959.38 632.194 954.405 641.202Q949.431 650.21 943.916 658.898C916.011 703.733 880.803 743.9 855.813 790.578Q851.052 799.44 846.904 808.605Q842.756 817.77 839.239 827.195Q835.723 836.62 832.854 846.263Q829.986 855.905 827.779 865.72C832.841 867.842 835.761 869.708 839.34 873.986C836.363 881.338 830.833 883.99 824.036 887.173C823.607 891.177 823.577 894.348 824.623 898.292C824.768 898.446 824.91 898.603 825.057 898.755C828.021 901.833 838.108 905.267 837.952 909.89C837.883 911.943 836.593 913.412 835.098 914.68C830.59 918.505 823.987 921.095 823.139 927.73C822.879 929.768 823.503 931.436 824.84 932.968C827.567 936.093 838.018 939.068 837.963 943.256C837.853 951.633 815.835 958.082 824.255 968.516C827.735 972.828 838.294 972.18 837.596 979.492C836.873 987.076 817.514 988.904 824.238 999.596C827.951 1005.5 835.49 1008.32 839.853 1014.18C835.387 1019.53 830.807 1020.78 824.421 1022.82C810.534 1039.41 802.092 1044.72 780.492 1046.93C770.955 1064.35 760.089 1076.4 740.471 1082.15C722.67 1087.36 704.171 1084.98 687.974 1076.07C667.688 1064.92 655.018 1046.05 644.853 1025.86C645.311 1024.88 645.787 1023.9 646.194 1022.9C647.047 1020.79 647.06 1019.92 646.187 1017.84L646.766 1017.6C658.972 1015.1 672.693 1007.12 681.764 998.765C681.959 998.646 682.157 998.532 682.348 998.407C684.12 997.256 684.52 996.842 684.93 994.824C685.03 994.28 685.154 993.5 685.324 992.975C686.969 987.895 696.955 984.249 701.41 981.775C702.186 980.102 702.86 978.275 703.356 976.495C706.151 966.458 696.955 963.961 693.153 956.869C692.604 955.845 692.421 954.695 692.814 953.602C693.776 950.922 696.429 950.009 698.788 948.824C699.953 946.059 701.057 943.49 701.525 940.498C702.024 939.315 702.31 938.415 702.322 937.116C702.397 929.055 694.424 925.787 689.412 920.846L688.869 920.303C691.184 917.513 693.759 915.43 696.62 913.245C698.725 911.888 700.773 910.485 702.38 908.533C703.8 906.809 704.575 904.707 704.263 902.464C703.255 895.216 694.409 889.885 689.046 885.795C694.393 881.176 701.336 875.563 704.478 869.1C709.089 859.616 689.887 854.347 687.373 846.213C687.292 845.951 687.235 845.682 687.165 845.417L687.515 844.812C691.953 843.163 695.216 841.543 698.287 837.822C705.856 828.65 708.638 802.706 712.611 789.912C733.357 723.109 777.205 668.685 811.873 609.062Q826.152 585.341 838.549 560.584C872.175 491.799 882.668 411.467 857.41 338.221C836.221 276.772 798.336 224.222 744.426 187.539C727.147 175.781 709.065 166.183 690.321 157.028Z"/>
	<path fill="#FEFEFE" d="M727.129 229.16C712.41 224.959 699.99 215.191 686.429 208.396C672.829 201.581 655.438 196.994 643.854 187.031C643.214 185.164 642.838 183.602 643.281 181.634C644.444 176.472 649.544 173.04 653.668 170.287C662.093 170.878 669.513 173.024 677.444 175.884C693.824 181.789 728.697 194.971 735.788 211.107C737.317 214.587 737.65 219.084 736.024 222.598C734.31 226.304 730.672 227.74 727.129 229.16Z"/>
	<path fill="#CFACD0" d="M704.412 257.715C694.164 252.209 683.721 247.874 671.924 251.442Q671.203 251.666 670.493 251.925Q669.784 252.184 669.088 252.477Q668.392 252.771 667.711 253.099Q667.031 253.426 666.367 253.787Q665.703 254.148 665.059 254.541Q664.414 254.934 663.789 255.358Q663.164 255.783 662.561 256.238Q661.958 256.692 661.378 257.176Q660.798 257.66 660.243 258.172Q659.687 258.684 659.158 259.223Q658.628 259.761 658.126 260.325Q657.624 260.89 657.15 261.478Q656.676 262.066 656.232 262.677Q655.788 263.288 655.374 263.92Q654.961 264.552 654.579 265.204Q654.197 265.855 653.848 266.525C650.106 273.566 649.474 280.952 649.375 288.776C637.51 278.022 606.802 277.796 591.212 278.602C550.601 280.701 510.125 300.949 483.177 331.242C454.498 363.481 444.133 406.48 446.787 448.784C447.364 457.981 447.419 469.097 451.3 477.573C445.473 491.262 445.1 502.914 445.354 517.579C445.442 522.686 445.725 528.105 444.789 533.139C442.648 529.79 440.662 526.642 437.638 523.998C426.602 514.346 411.155 516.517 397.717 517.563C394.03 512.365 392.405 503.835 390.867 497.663C385.657 476.742 381.568 454.173 381.144 432.55Q381.108 428.886 381.197 425.224Q381.287 421.561 381.502 417.904Q381.717 414.246 382.057 410.599Q382.397 406.951 382.862 403.317Q383.327 399.682 383.916 396.066Q384.505 392.45 385.217 388.857Q385.93 385.263 386.766 381.696Q387.601 378.129 388.558 374.592Q389.515 371.056 390.593 367.554Q391.67 364.052 392.867 360.59Q394.065 357.127 395.38 353.708Q396.694 350.288 398.126 346.915Q399.557 343.543 401.103 340.221Q402.649 336.9 404.308 333.633Q405.967 330.367 407.737 327.159Q409.507 323.951 411.386 320.806Q412.766 318.468 414.204 316.165Q415.642 313.861 417.137 311.595Q418.632 309.328 420.182 307.099Q421.733 304.87 423.339 302.68Q424.944 300.491 426.604 298.342Q428.263 296.192 429.975 294.085Q431.688 291.978 433.452 289.914Q435.216 287.85 437.031 285.83Q438.846 283.811 440.711 281.837Q442.575 279.863 444.488 277.936Q446.401 276.009 448.361 274.131Q450.322 272.252 452.328 270.422Q454.334 268.593 456.386 266.814Q458.437 265.035 460.532 263.307Q462.626 261.58 464.764 259.905Q466.901 258.23 469.079 256.609Q471.257 254.987 473.474 253.421Q475.692 251.854 477.948 250.343Q480.204 248.832 482.497 247.377Q484.789 245.922 487.117 244.525Q489.446 243.128 491.808 241.789Q494.17 240.45 496.565 239.171Q498.959 237.891 501.385 236.671Q503.811 235.451 506.266 234.292Q508.722 233.133 511.205 232.035Q513.688 230.937 516.198 229.901Q518.708 228.865 521.243 227.892Q523.778 226.919 526.336 226.009Q528.895 225.099 531.475 224.253Q534.055 223.407 536.655 222.626Q539.255 221.844 541.874 221.127Q544.493 220.41 547.129 219.759C592.17 208.607 643.929 210.808 684.365 235.438C693.279 240.867 701.858 246.995 704.412 257.715Z"/>
	<path fill="#FEFEFE" d="M795.775 302.784C794.104 302.829 792.39 302.871 790.741 302.552C782.895 301.035 755.844 263.522 750.637 255.783C747.982 251.836 744.293 246.531 745.451 241.57C746.489 237.126 750.31 235.083 753.929 232.92Q756.135 233.09 758.307 233.507C771.488 236.062 787.068 258.123 794.462 269.013C798.704 275.261 806.157 286.288 804.297 294.238C803.358 298.254 799.022 300.737 795.775 302.784Z"/>
	<path fill="#EB7627" d="M649.375 288.776C649.474 280.952 650.106 273.566 653.848 266.525Q654.197 265.855 654.579 265.204Q654.961 264.552 655.374 263.92Q655.788 263.288 656.232 262.677Q656.676 262.066 657.15 261.478Q657.624 260.89 658.126 260.325Q658.628 259.761 659.158 259.223Q659.687 258.684 660.243 258.172Q660.798 257.66 661.378 257.176Q661.958 256.692 662.561 256.238Q663.164 255.783 663.789 255.358Q664.414 254.934 665.058 254.541Q665.703 254.148 666.367 253.787Q667.031 253.426 667.711 253.099Q668.392 252.771 669.088 252.477Q669.784 252.184 670.493 251.925Q671.203 251.666 671.924 251.442C683.721 247.874 694.164 252.209 704.412 257.715C708.314 263.115 712.016 268.325 713.854 274.808C716.801 285.2 715.972 296.746 715.867 307.448L715.526 358.956C715.472 369.176 714.557 380.159 716.29 390.257C714.297 440.167 715.833 490.14 716.337 540.068C716.49 555.279 717.474 570.56 717.308 585.76C717.229 592.964 716.527 600.167 716.089 607.356L709.407 607.433C689.555 606.726 669.606 607.252 649.747 607.472C650.861 572.503 649.669 537.529 649.532 502.559L649.426 319.708Q649.619 304.242 649.375 288.776Z"/>
	<path fill="#CECDD9" d="M451.3 477.573C447.419 469.097 447.364 457.981 446.787 448.784C444.133 406.48 454.498 363.481 483.177 331.242C510.125 300.949 550.601 280.701 591.212 278.602C606.802 277.796 637.51 278.022 649.375 288.776Q649.619 304.242 649.426 319.708C641.212 310.003 632.731 298.961 618.981 297.837C610.125 297.114 599.69 300.317 593.014 306.232C584.472 313.799 581.993 325.085 581.55 336.003C580.766 355.304 583.675 374.797 580.877 394.011C573.99 384.323 566.332 375.578 553.961 373.451C545.193 371.943 534.77 373.447 527.574 378.851C519.565 384.865 515.893 394.753 514.761 404.386C513.318 416.66 514.429 429.782 514.748 442.118Q515.449 462.825 514.303 483.513C512.72 481.506 511.141 479.47 509.411 477.587C502.136 469.664 492.231 464.475 481.38 464.119C469.159 463.717 459.872 469.453 451.3 477.573Z"/>
	<path fill="#FDEC3A" d="M580.877 394.011C583.675 374.797 580.766 355.304 581.55 336.003C581.993 325.085 584.472 313.799 593.014 306.232C599.69 300.317 610.125 297.114 618.981 297.837C632.731 298.961 641.212 310.003 649.426 319.708L649.532 502.559C649.669 537.529 650.861 572.503 649.747 607.472Q619.014 607.373 588.282 607.668L580.793 607.611Q582.144 500.812 580.877 394.011Z"/>
	<path fill="#E12F78" d="M716.29 390.257C724.229 380.236 731.894 372.34 745.192 370.751C754.398 369.651 763.88 371.814 771.266 377.551C778.802 383.405 781.428 391.477 782.385 400.584C784.794 423.52 782.602 447.371 782.475 470.428Q781.768 519.071 782.005 567.716C782.139 580.959 782.838 594.196 783.098 607.438L716.089 607.356C716.527 600.167 717.229 592.964 717.308 585.76C717.474 570.56 716.49 555.279 716.337 540.068C715.833 490.14 714.297 440.167 716.29 390.257Z"/>
	<path fill="#2ABB56" d="M514.303 483.513Q515.449 462.825 514.748 442.118C514.429 429.782 513.318 416.66 514.761 404.386C515.893 394.753 519.565 384.865 527.574 378.851C534.77 373.447 545.193 371.943 553.961 373.451C566.332 375.578 573.99 384.323 580.877 394.011Q582.144 500.812 580.793 607.611C558.497 606.84 536.323 607.271 514.031 607.63C514.478 596.822 514.277 585.943 514.506 575.121C515.152 544.623 515.596 513.997 514.303 483.513Z"/>
	<path fill="#00A8E6" d="M451.3 477.573C459.872 469.453 469.159 463.717 481.38 464.119C492.231 464.475 502.136 469.664 509.411 477.587C511.141 479.47 512.72 481.506 514.303 483.513C515.596 513.997 515.152 544.623 514.506 575.121C514.277 585.943 514.478 596.822 514.031 607.63Q479.904 607.117 445.785 607.983C444.058 583.06 446.388 557.996 444.789 533.139C445.725 528.105 445.442 522.686 445.354 517.579C445.1 502.914 445.473 491.262 451.3 477.573Z"/>
	<path fill="#0A3B8B" d="M397.717 517.563C411.155 516.517 426.602 514.346 437.638 523.998C440.662 526.642 442.648 529.79 444.789 533.139C446.388 557.996 444.058 583.06 445.785 607.983C423.613 611.239 398.817 608.756 376.665 606.763C376.609 587.644 372.319 548.394 380.339 531.4C383.988 523.668 390.005 520.26 397.717 517.563Z"/>
	<path fill="#FEFEFE" d="M362.305 607.743C367.006 606.608 371.864 606.681 376.665 606.763C398.817 608.756 423.613 611.239 445.785 607.983Q479.904 607.117 514.031 607.63C536.323 607.271 558.497 606.84 580.793 607.611L588.282 607.668C588.875 657.143 588.437 706.657 588.571 756.138L588.787 810.686C588.787 821.755 589.061 833.201 588.109 844.219C573.73 843.943 559.049 844.948 544.729 843.967C538.713 843.071 531.867 843.582 525.746 843.523C512.295 843.394 498.781 843.115 485.347 843.962C463.448 835.282 466.882 806.654 461.125 788.133C440.693 722.403 396.43 666.676 362.305 607.743Z"/>
	<path fill="#CECDD9" d="M588.282 607.668Q619.014 607.373 649.747 607.472C669.606 607.252 689.555 606.726 709.407 607.433C715.477 608.972 723.996 607.946 730.349 607.946C740.344 607.946 807.481 606.589 811.873 609.062C777.205 668.685 733.357 723.109 712.611 789.912C708.638 802.706 705.856 828.65 698.287 837.822C695.216 841.543 691.953 843.163 687.515 844.812C677.942 842.065 647.602 843.535 637.156 844.565C620.913 843.755 604.39 844.321 588.109 844.219C589.061 833.201 588.787 821.755 588.787 810.686L588.571 756.138C588.437 706.657 588.875 657.143 588.282 607.668Z"/>
	<defs>
		<linearGradient id="gradient_1" gradientUnits="userSpaceOnUse" x1="486.32785" y1="847.84857" x2="539.16119" y2="854.33368">
			<stop offset="0" stop-color="#9A989A"/>
			<stop offset="1" stop-color="#B7B9C0"/>
		</linearGradient>
	</defs>
	<path fill="url(#gradient_1)" d="M485.347 843.962C498.781 843.115 512.295 843.394 525.746 843.523C531.867 843.582 538.713 843.071 544.729 843.967C537.721 847.782 536.417 851.754 533.971 858.991C536.998 859.244 539.931 859.426 542.851 860.337C540.967 860.471 538.829 860.414 536.99 860.768C532.224 860.935 527.417 861.248 522.65 861.239C520.725 860.642 518.595 860.857 516.594 860.598C505.776 859.197 495.316 859.64 484.546 858.765C486.836 854.184 486.041 848.824 485.347 843.962Z"/>
	<path fill="#ACAEB6" d="M637.156 844.565C647.602 843.535 677.942 842.065 687.515 844.812L687.165 845.417C685.398 848.848 684.172 852.189 683.415 855.984C684.4 858.928 685.45 861.676 686.817 864.472C685.764 866.52 683.495 869.267 683.735 871.486C685.39 872.672 687.074 873.75 688.814 874.808L688.79 875.935C683.497 879.858 656.279 879.084 648.738 877.89C648.508 877.854 648.281 877.799 648.053 877.753C653.788 877.417 659.659 877.671 665.409 877.67C669.026 875.082 673.192 873.243 676.673 870.496C678.465 869.081 679.521 867.818 679.848 865.48C679.448 864.443 679.422 864.017 678.547 863.264C671.136 856.894 640.83 860.464 630.825 861.275C631.238 865.761 631.195 873.844 633.62 877.634C626.773 877.802 619.894 877.031 613.079 876.438Q612.511 868.887 611.783 861.35C620.974 860.175 630.565 859.44 639.822 859.133C640.325 855.855 641.779 851.374 640.848 848.223C640.283 846.308 638.742 845.541 637.156 844.565Z"/>
	<path fill="#7E8390" d="M544.729 843.967C559.049 844.948 573.73 843.943 588.109 844.219C604.39 844.321 620.913 843.755 637.156 844.565C638.742 845.541 640.283 846.308 640.848 848.223C641.779 851.374 640.325 855.855 639.822 859.133C630.565 859.44 620.974 860.175 611.783 861.35Q612.511 868.887 613.079 876.438C619.894 877.031 626.773 877.802 633.62 877.634C638.44 877.575 643.235 877.534 648.053 877.753C648.281 877.799 648.508 877.854 648.738 877.89C656.279 879.084 683.497 879.858 688.79 875.935L688.814 874.808C687.074 873.75 685.39 872.672 683.735 871.486C683.495 869.267 685.764 866.52 686.817 864.472C685.45 861.676 684.4 858.928 683.415 855.984C684.172 852.189 685.398 848.848 687.165 845.417C687.235 845.682 687.292 845.951 687.373 846.213C689.887 854.347 709.089 859.616 704.478 869.1C701.336 875.563 694.393 881.176 689.046 885.795C678.551 882.683 660.38 884.796 650.726 890.015C648.764 891.076 646.85 892.554 645.114 893.952C638.672 894.353 632.229 894.387 625.777 894.458Q624.381 902.173 623.276 909.935Q635.414 910.492 647.565 910.606C652.332 911.264 657.098 911.991 661.899 912.357C673.51 913.699 684.871 911.513 696.62 913.245C693.759 915.43 691.184 917.513 688.869 920.303C675.284 915.398 652.765 917.847 639.111 921.903C630.601 924.431 622.649 928.013 613.925 929.931C617.634 929.946 630.432 929.093 632.912 930.535C633.811 932.863 632.309 940.985 632.726 944.598C626.988 944.033 621.352 944.198 615.609 944.62C625.095 946.41 634.97 946.287 644.574 947.736L644.768 948.179C643.091 948.314 641.526 948.276 639.849 948.158L639.897 948.657C645.376 952.251 669.073 948.291 676.095 948.123C682.632 947.862 689.05 946.57 695.606 946.919C697.418 946.281 697.904 945.828 698.902 944.202C699.506 943.216 700.089 942.291 700.81 941.385L701.525 940.498C701.057 943.49 699.953 946.059 698.788 948.824C696.429 950.009 693.776 950.922 692.814 953.602C692.421 954.695 692.604 955.845 693.153 956.869C696.955 963.961 706.151 966.458 703.356 976.495C702.86 978.275 702.186 980.102 701.41 981.775C696.955 984.249 686.969 987.895 685.324 992.975C685.154 993.5 685.03 994.28 684.93 994.824C684.108 993.161 683.311 992.426 681.833 991.325C669.487 988.835 656.846 989.6 644.344 990.053C640.569 990.155 636.94 990.405 633.203 990.953C633.473 996.469 633.327 1001.7 631.891 1007.07C629.567 1004.32 629.688 995.823 628.948 991.989C611.37 992.224 593.483 990.731 575.939 989.657C565.476 989.017 552.773 989.384 542.762 986.434C544.256 984.903 543.196 983.886 544.496 982.273C548.036 981.134 552.315 981.346 556.05 980.973C562.321 981.011 567.555 980.764 573.297 977.846C574.092 977.24 574.071 977.28 574.88 976.549C575.974 975.561 576.828 974.219 576.728 972.683C576.566 970.185 574.356 968.504 572.67 966.945C562.604 962.237 553.135 963.043 542.377 963.676C530.982 963.234 519.461 963.613 508.048 963.496C500.213 963.374 492.276 963.168 484.484 962.331C485.531 961.149 486.489 959.838 487.043 958.342C488.121 955.43 487.002 952.897 485.675 950.313C499.872 946.792 515.024 951.669 529.421 951.035C534.676 950.803 538.257 950.074 541.851 946.153L554.369 946.04L567.799 945.978C571.31 945.96 574.11 945.952 576.889 943.549C578.674 942.004 579.909 939.866 579.989 937.475C580.066 935.218 579.087 933.094 577.446 931.566C574.716 929.023 571.732 928.977 568.183 928.987L543.366 929.02L508.901 929.076L507.416 928.84C501.013 927.182 493.009 928.153 486.274 927.264C486.747 923.158 486.796 919.255 486.487 915.14C493.431 913.423 502.013 914.901 509.084 915.362C517.515 915.912 526.406 916.488 534.833 915.816C541.002 915.325 544.206 911.268 549.619 910.635C549.805 910.613 549.992 910.604 550.178 910.588C553.857 910.664 557.495 911.035 561.155 911.391C566.154 912.142 571.73 910.825 576.605 909.731C576.725 906.699 576.675 902.999 575.427 900.194C573.826 896.595 571.15 895.559 567.633 894.3C560.388 893.665 552.949 893.935 545.673 893.919C525.59 892.413 505.222 895.476 485.173 893.125C485.658 890.7 486.515 887.772 485.919 885.324C485.183 882.306 482.647 880.883 480.195 879.33C489.093 877.338 500.161 877.45 509.267 877.721C519.368 877.665 529.131 879 539.221 877.544C550.736 877.599 562.615 878.566 573.956 876.338C573.34 872.73 573.189 869.115 572.999 865.467L576.717 862.171C566.684 860.574 557.479 860.63 547.368 860.93C545.897 860.531 544.364 860.47 542.851 860.337C539.931 859.426 536.998 859.244 533.971 858.991C536.417 851.754 537.721 847.782 544.729 843.967ZM668.759 961.678C657.399 961.996 644.938 963.429 633.663 962.396C625.99 962.078 617.586 963.637 609.984 964.708C608.994 969.915 608.486 975.231 607.852 980.492C620.986 981.109 681.449 985.748 688.562 978.389C689.659 977.254 690.098 976.126 690.127 974.552C690.207 970.174 685.228 965.609 682.416 962.695C677.898 961.884 673.345 960.912 668.759 961.678Z"/>
	<path fill="#ACAEB6" d="M480.195 879.33C478.69 878.813 477.204 876.832 476.543 875.383C475.041 872.086 475.694 868.435 477.065 865.232C478.588 861.674 481.076 860.148 484.546 858.765C495.316 859.64 505.776 859.197 516.594 860.598C518.595 860.857 520.725 860.642 522.65 861.239C516.638 861.263 508.315 860.676 503.692 865.359C502.424 866.642 501.672 868.293 501.701 870.114C501.736 872.344 502.817 874.199 504.46 875.649C505.923 876.939 507.391 877.349 509.267 877.721C500.161 877.45 489.093 877.338 480.195 879.33Z"/>
	<path fill="#FEFEFE" d="M633.62 877.634C631.195 873.844 631.238 865.761 630.825 861.275C640.83 860.464 671.136 856.894 678.547 863.264C679.422 864.017 679.448 864.443 679.848 865.48C679.521 867.818 678.465 869.081 676.673 870.496C673.192 873.243 669.026 875.082 665.409 877.67C659.659 877.671 653.788 877.417 648.053 877.753C643.235 877.534 638.44 877.575 633.62 877.634Z"/>
	<path fill="#CECDD9" d="M536.99 860.768C538.829 860.414 540.967 860.471 542.851 860.337C544.364 860.47 545.897 860.531 547.368 860.93C545.23 860.957 543.522 860.444 541.974 862.17C539.35 865.094 539.415 869.373 536.263 872.482C536.041 869.01 538.049 863.671 536.99 860.768Z"/>
	<defs>
		<linearGradient id="gradient_2" gradientUnits="userSpaceOnUse" x1="572.45001" y1="874.0072" x2="539.69281" y2="864.31824">
			<stop offset="0" stop-color="#ACADC7"/>
			<stop offset="1" stop-color="#E5E7F3"/>
		</linearGradient>
	</defs>
	<path fill="url(#gradient_2)" d="M536.263 872.482C539.415 869.373 539.35 865.094 541.974 862.17C543.522 860.444 545.23 860.957 547.368 860.93C557.479 860.63 566.684 860.574 576.717 862.171L572.999 865.467C573.189 869.115 573.34 872.73 573.956 876.338C562.615 878.566 550.736 877.599 539.221 877.544L536.263 872.482Z"/>
	<path fill="#FEFEFE" d="M522.65 861.239C527.417 861.248 532.224 860.935 536.99 860.768C538.049 863.671 536.041 869.01 536.263 872.482L539.221 877.544C529.131 879 519.368 877.665 509.267 877.721C507.391 877.349 505.923 876.939 504.46 875.649C502.817 874.199 501.736 872.344 501.701 870.114C501.672 868.293 502.424 866.642 503.692 865.359C508.315 860.676 516.638 861.263 522.65 861.239Z"/>
	<defs>
		<linearGradient id="gradient_3" gradientUnits="userSpaceOnUse" x1="702.28668" y1="896.5799" x2="649.12274" y2="902.01978">
			<stop offset="0" stop-color="#91919D"/>
			<stop offset="1" stop-color="#ADB1BF"/>
		</linearGradient>
	</defs>
	<path fill="url(#gradient_3)" d="M645.114 893.952C646.85 892.554 648.764 891.076 650.726 890.015C660.38 884.796 678.551 882.683 689.046 885.795C694.409 889.885 703.255 895.216 704.263 902.464C704.575 904.707 703.8 906.809 702.38 908.533C700.773 910.485 698.725 911.888 696.62 913.245C684.871 911.513 673.51 913.699 661.899 912.357C666.537 911.889 671.077 911.437 675.736 911.064C678.885 910.812 681.728 910.33 683.842 907.815C684.823 905.351 684.187 902.277 683.432 899.797C678.599 896.581 673.387 895.133 667.714 894.307C660.31 893.652 652.57 894.129 645.114 893.952Z"/>
	<path fill="#ACAEB6" d="M486.487 915.14C485.083 914.979 483.549 914.811 482.26 914.189C479.56 912.884 477.467 909.956 476.674 907.118C475.843 904.141 476.129 900.765 477.723 898.085C479.542 895.023 481.854 894.017 485.173 893.125C505.222 895.476 525.59 892.413 545.673 893.919Q540.582 894.245 535.48 894.283L510.465 894.284C508.588 897.434 503.113 905.047 504.163 908.803C504.367 909.53 504.941 909.674 505.589 909.918C513.175 912.772 527.777 911.457 535.804 910.519L550.178 910.588C549.992 910.604 549.805 910.613 549.619 910.635C544.206 911.268 541.002 915.325 534.833 915.816C526.406 916.488 517.515 915.912 509.084 915.362C502.013 914.901 493.431 913.423 486.487 915.14Z"/>
	<defs>
		<linearGradient id="gradient_4" gradientUnits="userSpaceOnUse" x1="562.07928" y1="905.69122" x2="535.55902" y2="897.29895">
			<stop offset="0" stop-color="#B4B8CE"/>
			<stop offset="1" stop-color="#F1F4FC"/>
		</linearGradient>
	</defs>
	<path fill="url(#gradient_4)" d="M545.673 893.919C552.949 893.935 560.388 893.665 567.633 894.3C564.506 899.648 564.256 906.421 561.155 911.391C557.495 911.035 553.857 910.664 550.178 910.588L535.804 910.519C536.496 905.007 536.133 899.782 535.48 894.283Q540.582 894.245 545.673 893.919Z"/>
	<path fill="#FEFEFE" d="M625.777 894.458C632.229 894.387 638.672 894.353 645.114 893.952C652.57 894.129 660.31 893.652 667.714 894.307C668.854 897.49 668.983 899.761 667.492 902.88C666.227 905.525 664.324 907.817 662.471 910.065L647.565 910.606Q635.414 910.492 623.276 909.935Q624.381 902.173 625.777 894.458Z"/>
	<path fill="#FEFEFE" d="M510.465 894.284L535.48 894.283C536.133 899.782 536.496 905.007 535.804 910.519C527.777 911.457 513.175 912.772 505.589 909.918C504.941 909.674 504.367 909.53 504.163 908.803C503.113 905.047 508.588 897.434 510.465 894.284Z"/>
	<path fill="#ACAEB6" d="M567.633 894.3C571.15 895.559 573.826 896.595 575.427 900.194C576.675 902.999 576.725 906.699 576.605 909.731C571.73 910.825 566.154 912.142 561.155 911.391C564.256 906.421 564.506 899.648 567.633 894.3Z"/>
	<path fill="#CECDD9" d="M667.714 894.307C673.387 895.133 678.599 896.581 683.432 899.797C677.089 903.685 669.962 908.902 662.471 910.065C664.324 907.817 666.227 905.525 667.492 902.88C668.983 899.761 668.854 897.49 667.714 894.307Z"/>
	<path fill="#ACAEB6" d="M683.432 899.797C684.187 902.277 684.823 905.351 683.842 907.815C681.728 910.33 678.885 910.812 675.736 911.064C671.077 911.437 666.537 911.889 661.899 912.357C657.098 911.991 652.332 911.264 647.565 910.606L662.471 910.065C669.962 908.902 677.089 903.685 683.432 899.797Z"/>
	<path fill="#ACAEB6" d="M613.925 929.931C622.649 928.013 630.601 924.431 639.111 921.903C652.765 917.847 675.284 915.398 688.869 920.303L689.412 920.846C694.424 925.787 702.397 929.055 702.322 937.116C702.31 938.415 702.024 939.315 701.525 940.498L700.81 941.385C700.089 942.291 699.506 943.216 698.902 944.202C697.904 945.828 697.418 946.281 695.606 946.919Q694.734 942.773 694.074 938.589C691.242 942.358 689.439 943.405 684.832 944.064C682.252 944.433 679.159 944.312 677.098 946.033L676.095 948.123C669.073 948.291 645.376 952.251 639.897 948.657L639.849 948.158C641.526 948.276 643.091 948.314 644.768 948.179L644.574 947.736C634.97 946.287 625.095 946.41 615.609 944.62C621.352 944.198 626.988 944.033 632.726 944.598C632.309 940.985 633.811 932.863 632.912 930.535C630.432 929.093 617.634 929.946 613.925 929.931ZM638.932 928.722C636.647 931.858 633.301 935.729 634.123 939.923C634.483 941.761 635.77 943.118 637.365 943.984C644.413 947.811 657.124 945.731 664.701 944.628C669.491 944.565 675.036 943.613 678.67 940.249C679.89 939.119 680.889 937.595 680.679 935.852C680.463 934.048 679.09 932.613 677.687 931.588C675.408 929.925 672.601 929.08 669.843 928.66C663.918 927.758 644.947 927.867 638.932 928.722Z"/>
	<path fill="#ACAEB6" d="M485.675 950.313C484.413 950.065 483.117 949.79 481.917 949.315C479.473 948.347 477.477 946.131 476.55 943.698C475.442 940.788 475.799 937.537 477.115 934.755C479.125 930.506 482.022 928.828 486.274 927.264C493.009 928.153 501.013 927.182 507.416 928.84L507.122 945.93C517.032 946.629 526.989 946.455 536.916 946.304L541.851 946.153C538.257 950.074 534.676 950.803 529.421 951.035C515.024 951.669 499.872 946.792 485.675 950.313Z"/>
	<path fill="#CECDD9" d="M638.932 928.722C644.947 927.867 663.918 927.758 669.843 928.66C672.601 929.08 675.408 929.925 677.687 931.588C679.09 932.613 680.463 934.048 680.679 935.852C680.889 937.595 679.89 939.119 678.67 940.249C675.036 943.613 669.491 944.565 664.701 944.628C664.948 940.524 666.037 934.281 663.143 930.88C660.014 927.202 644.811 929.3 639.562 928.789L638.932 928.722Z"/>
	<path fill="#FEFEFE" d="M507.416 928.84L508.901 929.076C516.992 930.552 526.356 929.653 534.583 929.504C535.765 934.613 537.355 939.912 537.781 945.141C537.524 945.508 537.248 946.007 536.916 946.304C526.989 946.455 517.032 946.629 507.122 945.93L507.416 928.84Z"/>
	<path fill="#CECDD9" d="M508.901 929.076L543.366 929.02C541.396 929.851 540.283 930.557 539.449 932.678C538.022 936.306 540.254 941.95 541.357 945.5C545.232 945.461 550.693 944.837 554.369 946.04L541.851 946.153L536.916 946.304C537.248 946.007 537.524 945.508 537.781 945.141C537.355 939.912 535.765 934.613 534.583 929.504C526.356 929.653 516.992 930.552 508.901 929.076Z"/>
	<defs>
		<linearGradient id="gradient_5" gradientUnits="userSpaceOnUse" x1="570.32593" y1="936.94318" x2="539.75513" y2="937.2124">
			<stop offset="0" stop-color="#A8ACC3"/>
			<stop offset="1" stop-color="#EAEEF8"/>
		</linearGradient>
	</defs>
	<path fill="url(#gradient_5)" d="M543.366 929.02L568.183 928.987C569.994 932.178 571.344 935.082 572.459 938.598C570.968 941.104 569.513 943.615 567.799 945.978L554.369 946.04C550.693 944.837 545.232 945.461 541.357 945.5C540.254 941.95 538.022 936.306 539.449 932.678C540.283 930.557 541.396 929.851 543.366 929.02Z"/>
	<path fill="#9C9DAC" d="M568.183 928.987C571.732 928.977 574.716 929.023 577.446 931.566C579.087 933.094 580.066 935.218 579.989 937.475C579.909 939.866 578.674 942.004 576.889 943.549C574.11 945.952 571.31 945.96 567.799 945.978C569.513 943.615 570.968 941.104 572.459 938.598C571.344 935.082 569.994 932.178 568.183 928.987Z"/>
	<path fill="#FEFEFE" d="M664.701 944.628C657.124 945.731 644.413 947.811 637.365 943.984C635.77 943.118 634.483 941.761 634.123 939.923C633.301 935.729 636.647 931.858 638.932 928.722L639.562 928.789C644.811 929.3 660.014 927.202 663.143 930.88C666.037 934.281 664.948 940.524 664.701 944.628Z"/>
	<path fill="#9C9DAC" d="M695.606 946.919C689.05 946.57 682.632 947.862 676.095 948.123L677.098 946.033C679.159 944.312 682.252 944.433 684.832 944.064C689.439 943.405 691.242 942.358 694.074 938.589Q694.734 942.773 695.606 946.919Z"/>
	<path fill="#ACAEB6" d="M668.759 961.678C673.345 960.912 677.898 961.884 682.416 962.695C685.228 965.609 690.207 970.174 690.127 974.552C690.098 976.126 689.659 977.254 688.562 978.389C681.449 985.748 620.986 981.109 607.852 980.492C608.486 975.231 608.994 969.915 609.984 964.708C617.586 963.637 625.99 962.078 633.663 962.396L631.384 962.91C628.299 964.959 626.729 976.046 625.786 979.993C641.993 981.184 658.792 980.248 675.073 980.144C675.334 975.68 675.87 969.988 673.977 965.849C672.818 963.314 671.298 962.584 668.759 961.678Z"/>
	<path fill="#FEFEFE" d="M633.663 962.396C644.938 963.429 657.399 961.996 668.759 961.678C671.298 962.584 672.818 963.314 673.977 965.849C675.87 969.988 675.334 975.68 675.073 980.144C658.792 980.248 641.993 981.184 625.786 979.993C626.729 976.046 628.299 964.959 631.384 962.91L633.663 962.396Z"/>
	<path fill="#ACAEB6" d="M482.729 984.006C481.289 982.741 479.987 981.411 478.841 979.868C477.202 977.662 476.237 975.028 476.706 972.259C477.484 967.676 481.039 964.979 484.484 962.331C492.276 963.168 500.213 963.374 508.048 963.496C506.56 964.881 504.974 966.229 503.706 967.82C502.944 972.52 503.306 976.729 503.506 981.454L514.866 981.589C522.985 981.606 531.03 980.872 539.12 980.273C544.874 981.019 550.322 980.648 556.05 980.973C552.315 981.346 548.036 981.134 544.496 982.273C543.196 983.886 544.256 984.903 542.762 986.434C532.219 984.358 520.559 985.007 509.867 984.959Q496.286 984.839 482.729 984.006Z"/>
	<defs>
		<linearGradient id="gradient_6" gradientUnits="userSpaceOnUse" x1="572.26978" y1="973.0777" x2="534.20563" y2="970.83569">
			<stop offset="0" stop-color="#B0B4CE"/>
			<stop offset="1" stop-color="#EDF1FA"/>
		</linearGradient>
	</defs>
	<path fill="url(#gradient_6)" d="M542.377 963.676C553.135 963.043 562.604 962.237 572.67 966.945C571.642 970.168 571.95 974.729 573.297 977.846C567.555 980.764 562.321 981.011 556.05 980.973C550.322 980.648 544.874 981.019 539.12 980.273C540.239 979.626 541.289 978.922 542.355 978.194C542.819 977.196 543.179 976.816 543.063 975.683C542.628 971.455 535.262 966.692 532.257 964.181C535.668 964.224 539.016 964.361 542.377 963.676Z"/>
	<path fill="#CECDD9" d="M508.048 963.496C519.461 963.613 530.982 963.234 542.377 963.676C539.016 964.361 535.668 964.224 532.257 964.181C525.875 964.1 519.495 963.964 513.115 964.22C512.656 970.354 512.357 975.784 514.866 981.589L503.506 981.454C503.306 976.729 502.944 972.52 503.706 967.82C504.974 966.229 506.56 964.881 508.048 963.496Z"/>
	<path fill="#FEFEFE" d="M513.115 964.22C519.495 963.964 525.875 964.1 532.257 964.181C535.262 966.692 542.628 971.455 543.063 975.683C543.179 976.816 542.819 977.196 542.355 978.194C541.289 978.922 540.239 979.626 539.12 980.273C531.03 980.872 522.985 981.606 514.866 981.589C512.357 975.784 512.656 970.354 513.115 964.22Z"/>
	<path fill="#ACAEB6" d="M572.67 966.945C574.356 968.504 576.566 970.185 576.728 972.683C576.828 974.219 575.974 975.561 574.88 976.549C574.071 977.28 574.092 977.24 573.297 977.846C571.95 974.729 571.642 970.168 572.67 966.945Z"/>
	<defs>
		<linearGradient id="gradient_7" gradientUnits="userSpaceOnUse" x1="563.06458" y1="978.33484" x2="552.99725" y2="1024.2833">
			<stop offset="0" stop-color="#697080"/>
			<stop offset="1" stop-color="#9F9CAA"/>
		</linearGradient>
	</defs>
	<path fill="url(#gradient_7)" d="M482.729 984.006Q496.286 984.839 509.867 984.959C520.559 985.007 532.219 984.358 542.762 986.434C552.773 989.384 565.476 989.017 575.939 989.657C593.483 990.731 611.37 992.224 628.948 991.989C629.688 995.823 629.567 1004.32 631.891 1007.07C630.681 1009.9 631.736 1014.3 632.22 1017.32L528.456 1017.96C525.974 1017.97 523.482 1017.99 521.002 1017.89C497.24 1016.95 496.13 998.332 482.729 984.006Z"/>
	<defs>
		<linearGradient id="gradient_8" gradientUnits="userSpaceOnUse" x1="642.91876" y1="1003.3641" x2="680.70496" y2="1002.435">
			<stop offset="0" stop-color="#B0B1BA"/>
			<stop offset="1" stop-color="#DFDEEA"/>
		</linearGradient>
	</defs>
	<path fill="url(#gradient_8)" d="M644.344 990.053C656.846 989.6 669.487 988.835 681.833 991.325C681.415 993.031 680.155 996.96 681.317 998.401C681.437 998.551 681.615 998.644 681.764 998.765C672.693 1007.12 658.972 1015.1 646.766 1017.6C645.432 1017.48 644.426 1017.54 643.344 1016.67C642.502 1009.31 639.926 996.349 644.344 990.053Z"/>
	<path fill="#9C9DAC" d="M633.203 990.953C636.94 990.405 640.569 990.155 644.344 990.053C639.926 996.349 642.502 1009.31 643.344 1016.67C644.426 1017.54 645.432 1017.48 646.766 1017.6L646.187 1017.84C641.544 1017.85 636.861 1017.51 632.22 1017.32C631.736 1014.3 630.681 1009.9 631.891 1007.07C633.327 1001.7 633.473 996.469 633.203 990.953Z"/>
	<path fill="#CECDD9" d="M681.833 991.325C683.311 992.426 684.108 993.161 684.93 994.824C684.52 996.842 684.12 997.256 682.348 998.407C682.157 998.532 681.959 998.646 681.764 998.765C681.615 998.644 681.437 998.551 681.317 998.401C680.155 996.96 681.415 993.031 681.833 991.325Z"/>
	<path fill="#0C2644" d="M528.456 1017.96L632.22 1017.32C636.861 1017.51 641.544 1017.85 646.187 1017.84C647.06 1019.92 647.047 1020.79 646.194 1022.9C645.787 1023.9 645.311 1024.88 644.853 1025.86C637.42 1038.09 629.943 1050.28 623.218 1062.91C616.04 1063.48 608.768 1063.6 601.571 1063.87C586.365 1064.44 553.05 1066.69 544.38 1051.32C542.508 1047.99 541.142 1044.28 539.506 1040.83C535.082 1031.49 529.395 1024.83 521.417 1018.32L528.456 1017.96Z"/>
</svg>
